<svg version="1" xmlns="http://www.w3.org/2000/svg" width="933.333" height="933.333" viewBox="0 0 700.000000 700.000000"><path d="M86 23.5c0 12.9.2 23.5.5 23.5s6-4.2 12.8-9.3c6.7-5.2 12.8-9.7 13.5-10.1.9-.6 1.2 2.6 1.2 14.3V57H73v632.7l2.3 3.4c1.2 1.9 3.8 4.2 5.7 5.1 3.3 1.7 18.2 1.8 269 1.8s265.7-.1 269-1.8c1.9-.9 4.5-3.2 5.7-5.1l2.3-3.4V57h-41V41.9c0-11.7.3-14.9 1.3-14.3.6.4 6.7 4.9 13.4 10.1 6.8 5.1 12.5 9.3 12.8 9.3.3 0 .5-10.6.5-23.5V0H86v23.5zm147.3 162.9c1.8 1.8 2.7 20.8 2.7 57.6 0 21.2.3 28.9 1.5 33.3 4.2 16.2 15.8 28.2 31 32.1 8.9 2.4 154.1 2.4 163 0 15.6-4 28.3-17.7 31.4-33.8.5-2.8 1.2-23.3 1.4-45.6.3-22.3.8-41.3 1.2-42.3.4-.9 1.8-2 3.1-2.3 3.3-.9 7 .3 7.9 2.3.4 1 .9 19.8 1.2 41.8.5 33.6.3 41.4-1 49-3.8 21.7-17.8 38-38.7 45.1-5.2 1.8-10 1.9-87.5 1.9-76.8 0-82.4-.1-88-1.8-9.8-3.1-15.6-6.6-23.1-14.1-8.7-8.7-13.8-18.5-15.9-30.1-1.6-8.7-2-51.5-.8-77.3.7-15.6 1.3-17.2 6.3-17.2 1.6 0 3.5.6 4.3 1.4zm162.3 211.5c22.3 11 46 33.9 59.3 57.7 4.7 8.5 4.5 9.4-2.2 9.4-3.6 0-3.8-.2-6.3-5.7-10.4-23.5-39.6-53.1-63.7-64.4-3.7-1.7-6.7-3.2-6.7-3.4 0-1.3 11.4 2.5 19.6 6.4zm193.5-1.3c-22.7 11.3-46.8 35.6-58.9 59.1-4.6 9.1-4.8 9.3-8.2 9.3-6 0-6.5-1-3.4-7.1 9.5-18.8 29.2-40.4 48.9-53.6 10.4-7 22-12.1 27.9-12.2 2.1-.1.5 1-6.3 4.5zM504.5 469c23.1 1.4 39.8 5.1 48.3 10.6 2.2 1.5 2.2 1.6-4.9 5.1-27.8 13.9-41.9 54.9-28.1 81.9 3 6 10.9 12.8 17.1 14.9 10.8 3.6 23.8.7 34.8-7.6 2.9-2.1 5.4-3.9 5.7-3.9.9 0-.8 8.8-3.1 16.5-2.6 8.4-12.8 29.8-18.6 38.8-12.6 19.6-36.5 38.8-55.2 44.3-17.6 5.1-37.8-.9-56.9-17.2-9.4-8-18.9-18.4-24.1-26.4-10.2-15.6-20.5-39.9-22.1-52l-.7-5.4 4.4 3.7c2.4 2.1 7.3 5.3 10.9 7 5.8 2.9 7.4 3.2 15.5 3.2 7.5 0 9.8-.4 13.5-2.3 12.6-6.6 19-19.2 19-37.3 0-14.5-5.1-30.3-13.2-40.9-5.6-7.3-13.7-14.4-20-17.3-3.7-1.8-6.8-3.5-6.8-3.8 0-1.2 11.8-5.9 19.7-7.9 8-2.1 21.3-3.8 33.8-4.3 3.9-.2 8.6-.4 10.5-.5 1.9-.1 11.2.3 20.5.8zM424 488.2c21 9.6 35.7 37.1 32.3 60.4-2.9 20.1-15.1 31.4-32.4 30.2-19.6-1.4-37.4-19.8-43.5-44.8-5-20.3 3.8-41.8 19.3-47.6 5.8-2.2 17.6-1.3 24.3 1.8zm150.1-2c8.6 2.9 16.5 11.7 19.5 21.6 2 6.6 2.2 20 .4 27.7-.6 2.7-2.9 8.8-5.2 13.5-5.1 10.7-16.1 22.1-25.3 26.5-7.9 3.7-18.5 4.6-25.2 2-21.1-8.1-26.8-39-12.1-66.1 5.9-10.8 20.5-23.1 30.2-25.5 4.9-1.1 14-1 17.7.3z"/></svg>