<svg id="menu" viewBox="0 0 32 23">
	<path fill="currentColor" fill-rule="evenodd" clip-rule="evenodd" d="M2.5,0 L29.5,0 C30.8807119,-2.53632657e-16 32,1.11928813 32,2.5 L32,2.5 C32,3.88071187 30.8807119,5 29.5,5 L2.5,5 C1.11928813,5 1.69088438e-16,3.88071187 0,2.5 L0,2.5 L0,2.5 C-1.69088438e-16,1.11928813 1.11928813,2.53632657e-16 2.5,0 L2.5,0 Z M2.5,18 L29.5,18 C30.8807119,18 32,19.1192881 32,20.5 C32,21.8807119 30.8807119,23 29.5,23 L2.5,23 C1.11928813,23 1.69088438e-16,21.8807119 0,20.5 C-1.69088438e-16,19.1192881 1.11928813,18 2.5,18 L2.5,18 Z M2.5,9 L29.5,9 C30.8807119,9 32,10.1192881 32,11.5 C32,12.8807119 30.8807119,14 29.5,14 L2.5,14 C1.11928813,14 1.69088438e-16,12.8807119 0,11.5 C-1.69088438e-16,10.1192881 1.11928813,9 2.5,9 L2.5,9 Z"/>
</svg>
