<svg xmlns="http://www.w3.org/2000/svg">
    <symbol id="facebook" viewBox="0 0 11 21">
       <path fill="currentColor" fill-rule="evenodd" clip-rule="evenodd" d="M2.12313137,19.730619 L2.12313137,9.71702605 L-0.05671105,9.71702599 L-0.05671105,6.39777103 L2.12313136,6.39777103 L2.12313137,4.39048408 C2.12313137,1.6829976 2.99023461,-0.269381014 6.16565744,-0.269381014 L9.94328895,-0.269381014 L9.94328895,3.04305922 L7.28325913,3.04305922 C5.9511952,3.04305922 5.64764657,3.86942342 5.64764657,4.73479347 L5.64764657,6.39777045 L9.74695926,6.39777074 L9.18743108,9.71702605 L5.64764657,9.71702605 L5.64764657,19.7306186 L2.12313137,19.730619 L2.12313137,19.730619 Z"/> 
    </symbol>
    <symbol id="github" viewBox="0 0 20 20">
       <path fill="currentColor" fill-rule="evenodd" clip-rule="evenodd" d="M7.06048489,19.0267763 C7.06048489,18.7831802 7.05189043,18.1386263 7.0469793,17.2825781 C4.2654329,17.9019541 3.67855177,15.9078654 3.67855177,15.9078654 C3.22365752,14.7232457 2.56802045,14.4078927 2.56802045,14.4078927 C1.66007362,13.7715216 2.6367764,13.78474 2.6367764,13.78474 C3.64049045,13.8571264 4.1684379,14.8415818 4.1684379,14.8415818 C5.06042352,16.4082759 6.50859568,15.9563328 7.07890167,15.6938533 C7.16975775,15.0310454 7.42820647,14.5791023 7.71366643,14.3229174 C5.49321768,14.0642145 3.15858493,13.1842474 3.15858493,9.25523796 C3.15858493,8.1360808 3.54840659,7.2208646 4.18808246,6.50392425 C4.08556243,6.24459201 3.74178269,5.20222742 4.28630524,3.79037736 C4.28630524,3.79037736 5.12611003,3.51467949 7.03592925,4.84155417 C7.83337541,4.61432375 8.68914141,4.49976436 9.53999623,4.49598768 C10.3890094,4.49976436 11.2441615,4.61432375 12.0434494,4.84155417 C13.9520408,3.51467949 14.7906178,3.79037736 14.7906178,3.79037736 C15.3363681,5.201598 14.9932023,6.24396254 14.8900684,6.50392425 C15.530972,7.2208646 15.9177242,8.1360808 15.9177242,9.25523796 C15.9177242,13.1943185 13.5794081,14.0610673 11.3515927,14.3147345 C11.7113336,14.6313465 12.0305577,15.257017 12.0305577,16.2137767 C12.0305577,17.5847127 12.0176659,18.6906515 12.0176659,19.0267763 C12.0176659,19.3012153 12.1981503,19.6197155 12.7058393,19.5196334 C16.6758813,18.1612864 19.5384615,14.3203995 19.5384615,9.79215638 C19.5384615,4.12901996 15.0607305,-0.461538462 9.53815457,-0.461538462 C4.01619259,-0.461538462 -0.461538462,4.12901996 -0.461538462,9.79215638 C-0.46092457,14.3216585 2.40411118,18.165063 6.37783659,19.5208923 C6.87754499,19.6146799 7.06048489,19.298068 7.06048489,19.0267763 L7.06048489,19.0267763 Z"/> 
    </symbol>
    <symbol id="gplus" viewBox="0 0 20 20">
       <path fill="currentColor" fill-rule="evenodd" clip-rule="evenodd" d="M10.265625,11.509375 C9.705,11.113125 8.635,10.149375 8.635,9.5825 C8.635,8.91875 8.824375,8.59125 9.82375,7.810625 C10.8475,7.01 11.573125,5.698125 11.573125,4.388125 C11.573125,2.830625 10.878125,1.875 9.575625,0.625 L11.540625,0.625 L12.926875,0 L6.73125,0 C3.953125,0 1.34,2.10125 1.34,4.538125 C1.34,7.029375 3.233125,9.03875 6.059375,9.03875 C6.255625,9.03875 6.44625,9.03375 6.63375,9.02125 C6.45,9.37125 6.319375,9.76625 6.319375,10.176875 C6.319375,10.869375 6.691875,11.430625 7.161875,11.889375 C6.8075,11.889375 6.463125,11.899375 6.08875,11.899375 C2.646875,11.89875 0,14.089375 0,16.361875 C0,18.59875 2.903125,20 6.3425,20 C10.265,20 12.430625,17.77375 12.430625,15.53625 C12.43125,13.741875 11.90125,12.668125 10.265625,11.509375 L10.265625,11.509375 Z M6.955625,8.405 C5.35875,8.3575 3.8425,6.619375 3.566875,4.524375 C3.291875,2.4275 4.361875,0.823125 5.956875,0.870625 C7.553125,0.919375 9.07,2.600625 9.34625,4.696875 C9.621875,6.79375 8.550625,8.4525 6.955625,8.405 L6.955625,8.405 Z M6.33,19.009375 C3.951875,19.009375 2.234375,17.505 2.234375,15.69625 C2.234375,13.925 4.364375,12.449375 6.743125,12.475 C7.298125,12.48125 7.815,12.57 8.28375,12.721875 C9.575,13.620625 10.50125,14.128125 10.76375,15.15 C10.81125,15.3575 10.839375,15.571875 10.839375,15.789375 C10.839375,17.596875 9.67375,19.009375 6.33,19.009375 L6.33,19.009375 Z M16.875,8.75 L16.875,5.625 L15.625,5.625 L15.625,8.75 L12.5,8.75 L12.5,10 L15.625,10 L15.625,13.125 L16.875,13.125 L16.875,10 L20,10 L20,8.75 L16.875,8.75 Z"/> 
    </symbol>
    <symbol id="instagram" viewBox="0 0 20 20">
       <path fill="currentColor" fill-rule="evenodd" clip-rule="evenodd" d="M17.5,0 L2.5,0 C1.088125,0 0,1.088125 0,2.5 L0,17.5 C0,18.91125 1.088125,20 2.5,20 L17.5,20 C18.91125,20 20,18.91125 20,17.5 L20,2.5 C20,1.088125 18.91125,0 17.5,0 L17.5,0 L17.5,0 Z M10.014375,6.07125 C12.2325,6.07125 14.03,7.813125 14.03,9.9625 C14.03,12.110625 12.2325,13.85375 10.014375,13.85375 C7.798125,13.85375 6,12.110625 6,9.9625 C6.000625,7.813125 7.79875,6.07125 10.014375,6.07125 L10.014375,6.07125 L10.014375,6.07125 Z M17.5,16.875 C17.5,17.313125 17.3125,17.5 16.875,17.5 L3.125,17.5 C2.688125,17.5 2.5,17.313125 2.5,16.875 L2.5,8.125 L4.058125,8.46375 C3.89125,9.0075 3.8,9.5825 3.8,10.179375 C3.8,13.503125 6.58375,16.200625 10.014375,16.200625 C13.446875,16.200625 16.229375,13.50375 16.229375,10.179375 C16.229375,9.5825 16.13875,9.0075 15.971875,8.46375 L17.5,8.125 L17.5,16.875 L17.5,16.875 Z M17.5,5.625 C17.5,5.970625 17.220625,6.25 16.875,6.25 L14.375,6.25 C14.029375,6.25 13.75,5.970625 13.75,5.625 L13.75,3.125 C13.75,2.779375 14.029375,2.5 14.375,2.5 L16.875,2.5 C17.220625,2.5 17.5,2.779375 17.5,3.125 L17.5,5.625 L17.5,5.625 Z"/> 
    </symbol>
    <symbol id="linkedin" viewBox="0 0 20 20">
       <path fill="currentColor" fill-rule="evenodd" clip-rule="evenodd" d="M4.24828226,20.1538458 L4.24828226,6.92705033 L0.178444096,6.92705033 L0.178444096,20.1538458 L4.24828226,20.1538458 L4.24828226,20.1538458 Z M4.24828226,2.23873288 C4.224041,1.05507138 3.43869072,0.153846154 2.1628701,0.153846154 C0.886717409,0.153846154 0.0528846154,1.05507138 0.0528846154,2.23873288 C0.0528846154,3.3966859 0.862476151,4.32397667 2.11405552,4.32397667 L2.13829677,4.32397667 C3.43869072,4.32397667 4.24828226,3.3966859 4.24828226,2.23873288 L4.24828226,2.23873288 L4.24828226,2.23873288 Z M10.8879951,20.1538462 L10.8879951,12.6178574 C10.8879951,12.214543 10.9170156,11.8112286 11.035085,11.5237174 C11.3578875,10.717488 12.0925417,9.88290677 13.3261086,9.88290677 C14.9421091,9.88290677 15.9555791,10.8041406 15.9555791,12.6178572 L15.9555791,20.1538461 L20.0528846,20.1538462 L20.0528846,12.4162002 C20.0528846,8.27124659 17.850115,6.3425254 14.9118961,6.3425254 C12.502803,6.3425254 11.4453464,7.69542548 10.8581797,8.61626009 L10.8875976,6.84723142 L6.79737899,6.84723142 C6.85621493,8.11347877 6.79737899,20.1538461 6.79737899,20.1538461 L10.8879951,20.1538462 L10.8879951,20.1538462 Z"/> 
    </symbol>
    <symbol id="twitter" viewBox="0 0 20 20">
       <path fill="currentColor" fill-rule="evenodd" clip-rule="evenodd" d="M16.6879538,1.63769743 C15.9395538,0.744277129 14.8731538,0.175047822 13.6929538,0.154421322 C11.4269538,0.114818163 9.5896538,2.12534636 9.5896538,4.64487158 C9.5896538,5.00245292 9.62595383,5.35114685 9.69595381,5.68588371 C6.28575383,5.45362533 3.26225384,3.58904704 1.23855384,0.778415324 C0.885353846,1.45190626 0.682953843,2.23906992 0.682953843,3.0822939 C0.682953843,4.67858864 1.40735385,6.09528886 2.50835384,6.93176747 C1.83575385,6.90058859 1.20305384,6.68679573 0.649853844,6.33606498 C0.649453846,6.35523539 0.649453846,6.37441037 0.649453846,6.39392175 C0.649453846,8.62315347 2.06385384,10.4933061 3.94095384,10.9289561 C3.59665384,11.0313959 3.23415384,11.0850068 2.85995384,11.0824014 C2.59555384,11.0805604 2.33845384,11.0497738 2.08795384,10.9944954 C2.61005384,12.8226917 4.12535384,14.1567443 5.92095383,14.2008544 C4.51665384,15.4248488 2.74745384,16.1538218 0.824953846,16.1496577 C0.493753843,16.1489403 0.167153847,16.126469 -0.153846154,16.0832359 C1.66205384,17.3915002 3.81885384,18.1532074 6.13605381,18.1538457 C13.6833538,18.1559248 17.8106538,11.2595282 17.8106538,5.2777458 C17.8106538,5.08148977 17.8065538,4.88628359 17.7987538,4.69201993 C18.6004538,4.06477935 19.2960538,3.2783591 19.8461538,2.38033851 C19.1103538,2.72860665 18.3194538,2.95991077 17.4895538,3.05693578 C18.3366538,2.50952352 18.9873538,1.6334086 19.2936538,0.582789117 C18.5007538,1.08766614 17.6226538,1.44972951 16.6879538,1.63769743 L16.6879538,1.63769743 Z"/> 
    </symbol></svg>